M48
; DRILL file {KiCad (6.0.0)} date Sun Jan 30 23:08:45 2022
; FORMAT={-:-/ absolute / inch / decimal}
; #@! TF.CreationDate,2022-01-30T23:08:45+01:00
; #@! TF.GenerationSoftware,Kicad,Pcbnew,(6.0.0)
; #@! TF.FileFunction,Plated,1,2,PTH
FMAT,2
INCH
; #@! TA.AperFunction,Plated,PTH,ViaDrill
T1C0.0157
; #@! TA.AperFunction,Plated,PTH,ComponentDrill
T2C0.0256
%
G90
G05
T1
X3.2106Y-1.5413
X3.2264Y-1.7169
X3.2657Y-1.7087
X3.2697Y-1.8406
X3.2717Y-1.3661
X3.2932Y-1.4929
X3.3031Y-1.6899
X3.3962Y-1.7062
X3.435Y-1.2323
X3.4567Y-1.6142
X3.5Y-1.2657
X3.5453Y-1.7096
X3.5728Y-1.7657
X3.574Y-1.8163
X3.624Y-1.8169
X3.6575Y-1.3287
X3.674Y-1.7663
X3.7067Y-1.2323
X3.7244Y-1.6378
X3.7441Y-1.687
X3.7717Y-1.7874
X3.8268Y-1.8287
T2
X3.2126Y-1.189
X3.2126Y-1.239
X3.2126Y-1.289
X3.2126Y-1.339
X3.815Y-1.1886
X3.815Y-1.2386
X3.815Y-1.2886
X3.815Y-1.3386
T0
M30
