%TF.GenerationSoftware,KiCad,Pcbnew,(6.0.0)*%
%TF.CreationDate,2022-01-30T23:15:08+01:00*%
%TF.ProjectId,TinyPlay_matrix,54696e79-506c-4617-995f-6d6174726978,rev?*%
%TF.SameCoordinates,Original*%
%TF.FileFunction,Copper,L2,Bot*%
%TF.FilePolarity,Positive*%
%FSLAX46Y46*%
G04 Gerber Fmt 4.6, Leading zero omitted, Abs format (unit mm)*
G04 Created by KiCad (PCBNEW (6.0.0)) date 2022-01-30 23:15:08*
%MOMM*%
%LPD*%
G01*
G04 APERTURE LIST*
%TA.AperFunction,ComponentPad*%
%ADD10R,1.000000X1.000000*%
%TD*%
%TA.AperFunction,ComponentPad*%
%ADD11O,1.000000X1.000000*%
%TD*%
%TA.AperFunction,ViaPad*%
%ADD12C,0.800000*%
%TD*%
%TA.AperFunction,Conductor*%
%ADD13C,0.250000*%
%TD*%
G04 APERTURE END LIST*
D10*
%TO.P,J2,1,Pin_1*%
%TO.N,Net-(D10-Pad2)*%
X116900000Y-58500000D03*
D11*
%TO.P,J2,2,Pin_2*%
%TO.N,Net-(D7-Pad2)*%
X116900000Y-59770000D03*
%TO.P,J2,3,Pin_3*%
%TO.N,Net-(D4-Pad2)*%
X116900000Y-61040000D03*
%TO.P,J2,4,Pin_4*%
%TO.N,Net-(D1-Pad2)*%
X116900000Y-62310000D03*
%TD*%
D10*
%TO.P,J1,1,Pin_1*%
%TO.N,Net-(D1-Pad1)*%
X101600000Y-62300000D03*
D11*
%TO.P,J1,2,Pin_2*%
%TO.N,Net-(D11-Pad1)*%
X101600000Y-61030000D03*
%TO.P,J1,3,Pin_3*%
%TO.N,Net-(D12-Pad1)*%
X101600000Y-59760000D03*
%TO.P,J1,4,Pin_4*%
%TO.N,Net-(D13-Pad2)*%
X101600000Y-58490000D03*
%TD*%
D12*
%TO.N,Net-(D1-Pad1)*%
X105800000Y-51400000D03*
X105800000Y-48000000D03*
X105800000Y-58400000D03*
X105800000Y-61900000D03*
X105800000Y-54900000D03*
%TO.N,Net-(D1-Pad2)*%
X115400000Y-46100000D03*
%TO.N,Net-(D11-Pad1)*%
X110800000Y-51500000D03*
X110800000Y-61900000D03*
X110800000Y-54900000D03*
X110800000Y-58400000D03*
X110800000Y-48000000D03*
%TO.N,Net-(D12-Pad1)*%
X115300000Y-52000000D03*
X115300000Y-59100000D03*
X115300000Y-48000000D03*
X115300000Y-55600000D03*
X115300000Y-61900000D03*
%TD*%
D13*
%TO.N,Net-(D1-Pad1)*%
X105800000Y-58400000D02*
X105800000Y-54900000D01*
X105800000Y-61900000D02*
X105800000Y-58400000D01*
X105800000Y-51400000D02*
X105800000Y-48000000D01*
X105800000Y-54900000D02*
X105800000Y-51400000D01*
%TO.N,Net-(D1-Pad2)*%
X117724511Y-48424511D02*
X115400000Y-46100000D01*
X117724511Y-61485489D02*
X117724511Y-48424511D01*
X116900000Y-62310000D02*
X117724511Y-61485489D01*
%TO.N,Net-(D11-Pad1)*%
X110800000Y-51500000D02*
X110800000Y-48000000D01*
X110800000Y-58400000D02*
X110800000Y-54900000D01*
X110800000Y-54900000D02*
X110800000Y-51500000D01*
X110800000Y-61900000D02*
X110800000Y-58400000D01*
%TO.N,Net-(D12-Pad1)*%
X115300000Y-59100000D02*
X115300000Y-55600000D01*
X115300000Y-61900000D02*
X115300000Y-59100000D01*
X115300000Y-55600000D02*
X115300000Y-52000000D01*
X115300000Y-48100000D02*
X115300000Y-48000000D01*
X115300000Y-52000000D02*
X115300000Y-48100000D01*
%TD*%
M02*
