M48
; DRILL file {KiCad (6.0.0)} date Sun Jan 30 23:15:05 2022
; FORMAT={-:-/ absolute / inch / decimal}
; #@! TF.CreationDate,2022-01-30T23:15:05+01:00
; #@! TF.GenerationSoftware,Kicad,Pcbnew,(6.0.0)
; #@! TF.FileFunction,Plated,1,2,PTH
FMAT,2
INCH
; #@! TA.AperFunction,Plated,PTH,ViaDrill
T1C0.0157
; #@! TA.AperFunction,Plated,PTH,ComponentDrill
T2C0.0256
%
G90
G05
T1
X4.1654Y-1.8898
X4.1654Y-2.0236
X4.1654Y-2.1614
X4.1654Y-2.2992
X4.1654Y-2.437
X4.3622Y-1.8898
X4.3622Y-2.0276
X4.3622Y-2.1614
X4.3622Y-2.2992
X4.3622Y-2.437
X4.5394Y-1.8898
X4.5394Y-2.0472
X4.5394Y-2.189
X4.5394Y-2.3268
X4.5394Y-2.437
X4.5433Y-1.815
T2
X4.0Y-2.3028
X4.0Y-2.3528
X4.0Y-2.4028
X4.0Y-2.4528
X4.6024Y-2.3031
X4.6024Y-2.3531
X4.6024Y-2.4031
X4.6024Y-2.4531
T0
M30
